<?xml version="1.0" encoding="UTF-8"?>
<svg width="393px" height="598px" viewBox="0 0 393 598" version="1.1" xmlns="http://www.w3.org/2000/svg" xmlns:xlink="http://www.w3.org/1999/xlink">
    <!-- Generator: Sketch 52.5 (67469) - http://www.bohemiancoding.com/sketch -->
    <title>Group</title>
    <desc>Created with Sketch.</desc>
    <g id="Page-1" stroke="none" stroke-width="1" fill="none" fill-rule="evenodd">
        <g id="Group">
            <g id="iconfinder_picture_1370028" fill="#FFFFFF">
                <path d="M382.219451,132.269327 C387.119701,132.269327 392.01995,128.199501 392.01995,122.094763 L392.01995,57.9950125 C392.01995,26.4538653 367.518703,0 336.157107,0 L55.8628429,0 C24.5012469,0 0,26.4538653 0,57.9950125 L0,350.004988 C0,381.546135 24.5012469,408 55.8628429,408 L337.137157,408 C367.518703,408 393,382.563591 393,350.004988 L393,209.59601 C393,203.491272 388.099751,199.421446 383.199501,199.421446 C378.299252,199.421446 373.399002,203.491272 373.399002,209.59601 L373.399002,339.830424 L20.5810474,339.830424 L20.5810474,57.9950125 C20.5810474,37.6458853 37.2418953,20.3491272 56.8428928,20.3491272 L338.117207,20.3491272 C357.718204,20.3491272 374.379052,36.6284289 374.379052,57.9950125 L374.379052,122.094763 C372.418953,128.199501 376.339152,132.269327 382.219451,132.269327 Z M370.458853,359.162095 C366.538653,374.42394 351.837905,386.633416 336.157107,386.633416 L55.8628429,386.633416 C39.201995,386.633416 25.4812968,375.441397 21.5610973,359.162095 L370.458853,359.162095 Z" id="Shape" fill-rule="nonzero"></path>
                <path d="M236.235292,288 C233.299462,288 231.342242,286.984628 229.385023,284.953884 L104.122961,156.001629 L55.192468,201.693373 C51.2780286,205.754861 45.4063694,204.739489 41.49193,200.678 C37.5774906,196.616512 38.5561004,190.52428 42.4705399,186.462791 L98.2513017,134.678815 C102.165741,130.617326 108.0374,131.632699 111.95184,134.678815 L244.06417,271.754047 C247.97861,275.815535 247.97861,281.907767 244.06417,285.969256 C242.106951,286.984628 239.171121,288 236.235292,288 Z" id="Path"></path>
                <path d="M344.19245,258 C341.244936,258 339.279927,256.980836 337.314918,254.942508 L267.557094,182.581864 L228.256911,216.214276 C224.326893,220.290932 217.449361,219.271768 214.501847,215.195112 C210.571829,211.118456 211.554334,203.984308 215.484352,200.926816 L261.662067,161.17942 C265.592085,158.121928 271.487112,158.121928 275.41713,162.198584 L352.052486,241.693376 C355.982505,245.770032 355.982505,251.885016 352.052486,255.961672 C349.104973,256.980836 346.157459,258 344.19245,258 Z" id="Path"></path>
                <path d="M226,143 C198.56,143 177,120.56 177,92 C177,63.44 198.56,41 226,41 C253.44,41 275,63.44 275,92 C275,120.56 253.44,143 226,143 Z M226,61.4 C209.34,61.4 196.6,74.66 196.6,92 C196.6,109.34 209.34,122.6 226,122.6 C242.66,122.6 255.4,109.34 255.4,92 C255.4,74.66 242.66,61.4 226,61.4 Z" id="Shape" fill-rule="nonzero"></path>
            </g>
            <g id="iconfinder_User_Interface-43_2044246" transform="translate(98.000000, 439.000000)" stroke="#FFFFFF" stroke-linecap="round" stroke-linejoin="round" stroke-width="10">
                <path d="M148.716981,52.7356322 L182,62 C174.233962,26.6528736 139.603774,0 98,0 C56.3962264,0 21.7660377,26.6528736 14,62" id="Path"></path>
                <path d="M197,31 L182,62" id="Path"></path>
                <path d="M47.2830189,101.264368 L14,92 C21.7660377,127.347126 56.3962264,154 98,154 C139.603774,154 174.233962,127.347126 182,92" id="Path"></path>
                <path d="M0,123 L15,92" id="Path"></path>
            </g>
        </g>
    </g>
</svg>